<svg width="96" height="96" viewBox="0 0 96 96" fill="none" xmlns="http://www.w3.org/2000/svg">
  <rect width="96" height="96" rx="48" fill="#172033"/>
  <rect x="3" y="3" width="90" height="90" rx="45" stroke="#4F8CFF" stroke-opacity=".35" stroke-width="6"/>
  <circle cx="48" cy="38" r="15" fill="#D8E7FF"/>
  <path d="M23 76c3.8-15 13.2-23 25-23s21.2 8 25 23c-6.4 5.6-14.8 9-25 9s-18.6-3.4-25-9Z" fill="#8BB8FF"/>
  <path d="M34 36c3-10 11.7-14.3 22.3-10.3C53.5 20.6 47 18 40.7 20.2 34 22.6 29.9 29 30.6 37.7c1.1-.4 2.3-1 3.4-1.7Z" fill="#0B1120" fill-opacity=".32"/>
</svg>
